<svg id="Logo" xmlns="http://www.w3.org/2000/svg" width="401.219" height="116" viewBox="0 0 401.219 116">
  <defs>
    <style>
      .cls-1 {
        fill: #c4ff88;
        stroke: #004b1a;
        stroke-linejoin: round;
        stroke-width: 2px;
      }

      .cls-2 {
        fill: #004b1a;
        fill-rule: evenodd;
      }
    </style>
  </defs>
  <rect id="Rounded_Rectangle_1" data-name="Rounded Rectangle 1" class="cls-1" x="3" y="3" width="126" height="110" rx="10" ry="10"/>
  <path id="be_" data-name="be  " class="cls-2" d="M60.882,83.924a19.744,19.744,0,0,1-14.861,6.7q-7.067,0-14.819-5.292V43.295a70.871,70.871,0,0,0-.3-8.493,3.223,3.223,0,0,0-1.071-2.262q-1.285-1.066-4.968.085L24.221,31l12.335-4.865h2.056v29.49q5.952-8.151,12.891-8.151a13.682,13.682,0,0,1,10.964,5.249q4.625,5.549,4.625,14.6,0,9.987-6.21,16.6h0Zm-4.84-25.863a9.923,9.923,0,0,0-8.18-4.353q-4.24,0-9.251,4.695V82.815Q43.193,87.3,48.29,87.3q4.282,0,7.538-4.4,3.555-4.822,3.555-13.017,0-7.468-3.341-11.822h0ZM102.811,85.5a15.185,15.185,0,0,1-11.478,5.121,16.168,16.168,0,0,1-12.592-5.889q-5.226-5.975-5.225-15.279,0-10.157,5.268-16.175a17.824,17.824,0,0,1,13.748-5.889A15.3,15.3,0,0,1,103.8,51.83q4.326,4.524,4.326,12.078H79.9q0,8.834,4.454,14.212a13.365,13.365,0,0,0,10.407,5.121q8.223,0.128,11.949-9.688l1.414,0.853a19.867,19.867,0,0,1-5.311,11.1h0ZM95.53,52.641a8.375,8.375,0,0,0-5.525-2.091,9.177,9.177,0,0,0-6.681,2.859A12.329,12.329,0,0,0,79.9,61.39h18.93q0-5.847-3.3-8.749h0Z"/>
  <path id="Wellfed" class="cls-2" d="M214.54,37.949q-0.372.813-1,2.4t-1.483,3.991L197.518,86.47h-1.595L184.056,53.137,172.226,86.47h-1.409L155.278,43.122q-2.225-6.282-3.189-6.947-1.373-1.7-4.71-1.7v-1.33h19.284v1.33h-0.89q-2.818,0-3.708,1.737a2.911,2.911,0,0,0-.371,1.367,24.22,24.22,0,0,0,1.632,6.245L173.6,73.166l8.678-24.944q-0.445-1.515-.909-2.864t-0.908-2.531q-2.189-5.543-3.857-6.984a6.974,6.974,0,0,0-4.376-1.367v-1.33h20.359v1.33h-1.372q-4.191,0-4.19,3.437a23.761,23.761,0,0,0,1.706,6.8l10.124,28.455,9.938-28.824a22.836,22.836,0,0,0,1.632-6.282q0-3.584-5.748-3.584v-1.33h15.613v1.33a6.3,6.3,0,0,0-5.748,3.474h0Zm34.637,44.012a13.15,13.15,0,0,1-9.939,4.435,14,14,0,0,1-10.9-5.1q-4.525-5.173-4.524-13.23,0-8.794,4.561-14.006a15.433,15.433,0,0,1,11.9-5.1A13.247,13.247,0,0,1,250.03,52.8q3.744,3.917,3.745,10.458H229.336q0,7.649,3.857,12.306A11.574,11.574,0,0,0,242.205,80q7.12,0.111,10.346-8.388l1.224,0.739a17.2,17.2,0,0,1-4.6,9.608h0Zm-6.3-28.455a7.251,7.251,0,0,0-4.784-1.811,7.946,7.946,0,0,0-5.785,2.476,10.676,10.676,0,0,0-2.967,6.91h16.392q0-5.062-2.856-7.576h0ZM259.041,85.25V83.809q3.115,0,4.154-1.293,1-1.293,1-5.248V45.3q0-5.579-.223-7.354a2.832,2.832,0,0,0-.853-1.848q-1.484-.923-4.079.074l-0.7-1.4,10.68-4.213h1.632v46.71q0,3.844,1.075,5.248,1,1.294,4.673,1.293V85.25H259.041Zm21.954,0V83.809q3.115,0,4.154-1.293,1-1.293,1-5.248V45.3q0-5.579-.222-7.354a2.832,2.832,0,0,0-.853-1.848q-1.485-.923-4.08.074l-0.7-1.4,10.68-4.213H292.6v46.71q0,3.844,1.075,5.248,1,1.294,4.673,1.293V85.25H281Zm52.4-45.971a2.963,2.963,0,0,1-2.188,1.072q-1.745,0-4.3-3.437-2.448-3.51-5.34-3.511a4.233,4.233,0,0,0-4.45,3.4,22.165,22.165,0,0,0-.612,3.954q-0.241,2.7-.241,6.763V50h9.123V52.8h-9.123V75.938q0,5.1,1.112,6.208a4.55,4.55,0,0,0,3.82,1.663h3.189V85.25H303.1V83.809h1.594a5.424,5.424,0,0,0,3.635-1.293q1.482-1.256,1.483-6.578V52.8h-6.972V50h6.972V47.668q0-10.162,6.49-14.523a14.518,14.518,0,0,1,8.307-2.587,12.284,12.284,0,0,1,6.6,2q3.151,2.033,3.152,4.619a3.409,3.409,0,0,1-.964,2.106h0Zm21.1,42.682a13.149,13.149,0,0,1-9.939,4.435,14,14,0,0,1-10.9-5.1q-4.524-5.173-4.524-13.23,0-8.794,4.562-14.006a15.433,15.433,0,0,1,11.9-5.1A13.245,13.245,0,0,1,355.35,52.8q3.745,3.917,3.746,10.458H334.657q0,7.649,3.857,12.306A11.571,11.571,0,0,0,347.525,80q7.12,0.111,10.347-8.388l1.224,0.739a17.21,17.21,0,0,1-4.6,9.608h0Zm-6.3-28.455a7.251,7.251,0,0,0-4.784-1.811,7.945,7.945,0,0,0-5.785,2.476,10.676,10.676,0,0,0-2.967,6.91h16.391q0-5.062-2.855-7.576h0ZM390.543,86.4h-1.668V81.3q-5.007,5.1-10.347,5.1a13.14,13.14,0,0,1-10.235-4.952,18.266,18.266,0,0,1-4.3-12.306,21.9,21.9,0,0,1,4.45-13.525q5.006-6.615,12.72-6.652a10.7,10.7,0,0,1,7.714,2.956v-6.5a61.951,61.951,0,0,0-.26-7.317,3.325,3.325,0,0,0-.964-2q-1.039-.961-4.191.074l-0.519-1.4,10.606-4.213h1.743V71.281q0,2.92.074,4.749t0.112,2.605a2.756,2.756,0,0,0,1.038,2.106q1.224,1.035,4.265-.074l0.445,1.293Zm-1.668-25.979a9.184,9.184,0,0,0-2.188-5.986,7.866,7.866,0,0,0-5.971-3.1q-4.043-.147-6.75,3.843Q371.11,59.346,371.111,66q0,7.908,3.6,12.269a9.226,9.226,0,0,0,7.306,3.806q3.522,0,6.861-3.474V60.417Z"/>
</svg>
